<svg id="レイヤー_1" data-name="レイヤー 1" xmlns="http://www.w3.org/2000/svg" viewBox="0 0 150.58 244.82"><defs><style>.cls-1{fill:none;stroke:#fffffa;}.cls-1,.cls-3{stroke-miterlimit:32.52;stroke-width:2.03px;}.cls-2,.cls-3{fill:#fff;}.cls-3{stroke:#fff;fill-rule:evenodd;}</style></defs><path class="cls-1" d="M1,237.78V7H149.5V237.78Z"/><path class="cls-1" d="M75.34,102.34a20.07,20.07,0,1,1-20.07,20.07h0a20.08,20.08,0,0,1,20.07-20.07Z"/><rect class="cls-1" x="31.11" y="201.66" width="88.29" height="36.12"/><rect class="cls-1" x="31.11" y="7.03" width="88.29" height="36.12"/><rect class="cls-1" x="55.27" y="225.74" width="40.13" height="12.04"/><rect class="cls-1" x="55.27" y="7.04" width="40.13" height="12.04"/><rect class="cls-1" x="67.31" y="237.78" width="16.05" height="6.02"/><rect class="cls-1" x="67.31" y="1.02" width="16.05" height="6.02"/><path class="cls-1" d="M59.23,43.15a20,20,0,0,0,32.05,0Z"/><circle class="cls-1" cx="75.34" cy="31.11" r="0.75"/><circle class="cls-1" cx="75.34" cy="213.7" r="0.75"/><path class="cls-1" d="M59.24,201.66H91.29a20,20,0,0,0-28-4,20.35,20.35,0,0,0-4,4Z"/><path class="cls-1" d="M147.49,237.78h2v-2A2,2,0,0,0,147.49,237.78Z"/><path class="cls-1" d="M1,237.78H3a2,2,0,0,0-2-2H1Z"/><path class="cls-1" d="M147.49,7a2,2,0,0,0,2,2V7Z"/><path class="cls-1" d="M1,9A2,2,0,0,0,3,7H1Z"/><circle class="cls-1" cx="75.34" cy="122.41" r="0.75"/><path class="cls-2" d="M1,122.66H74.55a.72.72,0,0,1,0-.5H1Zm75,0H149.5v-.5H76a.72.72,0,0,1,0,.5Z"/><path class="cls-3" d="M0,27.1H1"/><path class="cls-3" d="M0,217.72H1"/><path class="cls-3" d="M149.58,27.1h1"/><path class="cls-3" d="M149.58,217.72h1"/><path class="cls-3" d="M129.51,6V7"/><path class="cls-3" d="M129.51,237.78v1"/><path class="cls-3" d="M21.08,6V7"/><path class="cls-3" d="M21.08,237.78v1"/></svg>